<svg width="16" height="16" viewBox="0 0 16 16" fill="none" xmlns="http://www.w3.org/2000/svg">
<path d="M11.3332 4.03996C10.8708 4.04027 10.4229 4.20076 10.0655 4.49412C9.70814 4.78749 9.46346 5.1956 9.37308 5.64904C9.28271 6.10247 9.35223 6.57321 9.56981 6.98116C9.7874 7.38912 10.1396 7.70908 10.5665 7.88663C10.465 8.12992 10.2937 8.33767 10.0742 8.48362C9.85465 8.62957 9.59679 8.70718 9.33318 8.70663H6.66651C6.19654 8.7086 5.73584 8.83759 5.33317 9.07996V5.25329C5.77798 5.09603 6.15288 4.78658 6.3916 4.37964C6.63031 3.9727 6.71749 3.49447 6.63771 3.02947C6.55792 2.56447 6.31633 2.14265 5.95561 1.83856C5.5949 1.53446 5.1383 1.36768 4.66651 1.36768C4.19472 1.36768 3.73811 1.53446 3.3774 1.83856C3.01669 2.14265 2.77509 2.56447 2.69531 3.02947C2.61553 3.49447 2.7027 3.9727 2.94142 4.37964C3.18014 4.78658 3.55503 5.09603 3.99984 5.25329V10.8266C3.5605 10.9846 3.19028 11.2914 2.95334 11.6937C2.7164 12.096 2.62768 12.5685 2.70254 13.0293C2.7774 13.4902 3.01114 13.9103 3.36324 14.2169C3.71534 14.5235 4.16362 14.6973 4.63038 14.7081C5.09714 14.7189 5.55298 14.5661 5.91889 14.2761C6.2848 13.9861 6.53772 13.5772 6.63383 13.1203C6.72994 12.6634 6.66317 12.1873 6.4451 11.7745C6.22703 11.3616 5.8714 11.0381 5.43984 10.86C5.54089 10.6177 5.7112 10.4107 5.92941 10.2648C6.14762 10.1189 6.40403 10.0407 6.66651 10.04H9.33318C9.94306 10.0398 10.5345 9.83066 11.0088 9.44731C11.4832 9.06395 11.8118 8.52958 11.9398 7.93329C12.3856 7.78185 12.7636 7.47803 13.0073 7.07533C13.2511 6.67262 13.345 6.19683 13.2726 5.73169C13.2001 5.26656 12.9659 4.8419 12.6111 4.53246C12.2564 4.22301 11.8038 4.04861 11.3332 4.03996ZM4.66651 2.70663C4.79836 2.70663 4.92726 2.74573 5.03689 2.81898C5.14652 2.89224 5.23197 2.99635 5.28243 3.11817C5.33289 3.23999 5.34609 3.37403 5.32037 3.50335C5.29464 3.63267 5.23115 3.75146 5.13791 3.8447C5.04468 3.93793 4.92589 4.00143 4.79657 4.02715C4.66725 4.05287 4.5332 4.03967 4.41139 3.98921C4.28957 3.93876 4.18545 3.85331 4.1122 3.74367C4.03894 3.63404 3.99984 3.50515 3.99984 3.37329C3.99984 3.19648 4.07008 3.02691 4.1951 2.90189C4.32013 2.77687 4.4897 2.70663 4.66651 2.70663ZM4.66651 13.3733C4.53465 13.3733 4.40576 13.3342 4.29613 13.2609C4.1865 13.1877 4.10105 13.0836 4.05059 12.9618C4.00013 12.8399 3.98693 12.7059 4.01265 12.5766C4.03837 12.4472 4.10187 12.3285 4.1951 12.2352C4.28834 12.142 4.40713 12.0785 4.53645 12.0528C4.66577 12.027 4.79981 12.0402 4.92163 12.0907C5.04345 12.1412 5.14757 12.2266 5.22082 12.3362C5.29408 12.4459 5.33317 12.5748 5.33317 12.7066C5.33317 12.8834 5.26294 13.053 5.13791 13.178C5.01289 13.3031 4.84332 13.3733 4.66651 13.3733ZM11.3332 6.70663C11.2013 6.70663 11.0724 6.66753 10.9628 6.59427C10.8532 6.52102 10.7677 6.4169 10.7173 6.29508C10.6668 6.17327 10.6536 6.03922 10.6793 5.9099C10.705 5.78058 10.7685 5.66179 10.8618 5.56856C10.955 5.47532 11.0738 5.41183 11.2031 5.3861C11.3324 5.36038 11.4665 5.37358 11.5883 5.42404C11.7101 5.4745 11.8142 5.55995 11.8875 5.66958C11.9607 5.77921 11.9998 5.90811 11.9998 6.03996C11.9998 6.21677 11.9296 6.38634 11.8046 6.51137C11.6796 6.63639 11.51 6.70663 11.3332 6.70663Z" fill="#00A9DE"/>
</svg>
